<svg xmlns="http://www.w3.org/2000/svg" viewBox="0 0 960 1678" font-family="Arial, Helvetica, sans-serif"><defs><marker id="ar" markerWidth="9" markerHeight="9" refX="6" refY="4.5" orient="auto"><path d="M0,0 L8,4.5 L0,9 Z" fill="#5A6B7B"/></marker><marker id="aro" markerWidth="10" markerHeight="10" refX="7" refY="5" orient="auto"><path d="M0,0 L9,5 L0,10 Z" fill="#B45309"/></marker><marker id="arg" markerWidth="9" markerHeight="9" refX="6" refY="4.5" orient="auto"><path d="M0,0 L8,4.5 L0,9 Z" fill="#2F7A4B"/></marker><filter id="sh" x="-5%" y="-5%" width="110%" height="120%"><feDropShadow dx="0" dy="1.4" stdDeviation="1.6" flood-color="#1F3A5F" flood-opacity="0.16"/></filter></defs><rect x="0" y="0" width="960" height="1678" fill="#FFFFFF"/><rect x="0" y="0" width="960" height="104" rx="0" fill="#1F3A5F"/><text x="480.0" y="46" text-anchor="middle" font-size="24" font-weight="800" fill="#fff">MODÈLE RCED v4.3.2 — SCHÉMA GLOBAL INTÉGRÉ</text><text x="480.0" y="74" text-anchor="middle" font-size="13.5" fill="#AFC4DC">Réseau de Cellules Économiques Démocratiques — Communs nationaux, Fonds Décarbonation &amp; dynamique à deux secteurs</text><text x="480.0" y="93" text-anchor="middle" font-size="11" fill="#7E9AB8">Cohérence numérique validée (7/7) — Nadir Felder | Juin 2026 — CC BY 4.0</text><g><rect x="150" y="130" width="660" height="60" rx="9" fill="#FBE9E7" stroke="#C0392B" stroke-width="1.4" filter="url(#sh)"/><circle cx="176" cy="160" r="16" fill="#C0392B"/><text x="176" y="160" text-anchor="middle" dominant-baseline="central" font-size="13" font-weight="700" fill="#fff">0</text><text x="204" y="152" font-size="14" font-weight="700" fill="#1F3A5F">Diagnostic</text><text x="204" y="171" font-size="11" fill="#41505e">Piketty / Saez / Zucman — inégalités &amp; évasion fiscale</text></g><line x1="480" y1="190" x2="480" y2="210" stroke="#5A6B7B" stroke-width="2" marker-end="url(#ar)"/><g><rect x="150" y="210" width="660" height="60" rx="9" fill="#EDE7F6" stroke="#5E35B1" stroke-width="1.4" filter="url(#sh)"/><circle cx="176" cy="240" r="16" fill="#5E35B1"/><text x="176" y="240" text-anchor="middle" dominant-baseline="central" font-size="13" font-weight="700" fill="#fff">1</text><text x="204" y="232" font-size="14" font-weight="700" fill="#1F3A5F">Infrastructure</text><text x="204" y="251" font-size="11" fill="#41505e">Blockchain mondiale — patrimoine ET carbone visibles &amp; imposables</text></g><line x1="480" y1="270" x2="480" y2="290" stroke="#5A6B7B" stroke-width="2" marker-end="url(#ar)"/><g><rect x="150" y="290" width="660" height="60" rx="9" fill="#FFF8E1" stroke="#B8860B" stroke-width="1.4" filter="url(#sh)"/><circle cx="176" cy="320" r="16" fill="#B8860B"/><text x="176" y="320" text-anchor="middle" dominant-baseline="central" font-size="13" font-weight="700" fill="#fff">2</text><text x="204" y="312" font-size="14" font-weight="700" fill="#1F3A5F">Captation</text><text x="204" y="331" font-size="11" fill="#41505e">Fiscalité cantonale inversée — clé 40 / 35 / 25</text></g><line x1="480" y1="350" x2="480" y2="370" stroke="#5A6B7B" stroke-width="2" marker-end="url(#ar)"/><g><rect x="150" y="370" width="660" height="60" rx="9" fill="#D6EAE8" stroke="#2C7A7B" stroke-width="1.4" filter="url(#sh)"/><circle cx="176" cy="400" r="16" fill="#2C7A7B"/><text x="176" y="400" text-anchor="middle" dominant-baseline="central" font-size="13" font-weight="700" fill="#fff">3</text><text x="204" y="392" font-size="14" font-weight="700" fill="#1F3A5F">Capitalisation</text><text x="204" y="411" font-size="11" fill="#41505e">Fonds souverain citoyen — investit dans l&#x27;économie réelle (κ ≈ 1,16 %/an → 19,2 %)</text></g><line x1="480" y1="430" x2="480" y2="450" stroke="#5A6B7B" stroke-width="2" marker-end="url(#ar)"/><rect x="150" y="450" width="660" height="76" rx="9" fill="#F4F7FA" stroke="#2C7A7B" stroke-width="1.4" filter="url(#sh)"/><text x="164" y="470" font-size="12.5" font-weight="700" fill="#1F3A5F">Partage des gains de productivité  ΔP(t) = r   —   contrainte stricte  α + β + γ + δ = 1</text><rect x="164.0" y="480" width="284.4" height="30" fill="#2F7A4B" opacity="0.92" stroke="#fff" stroke-width="1"/><text x="306.2" y="493" text-anchor="middle" font-size="11" font-weight="700" fill="#fff">α 45 %</text><text x="306.2" y="505" text-anchor="middle" font-size="9" fill="#fff">Temps de travail</text><rect x="448.4" y="480" width="221.2" height="30" fill="#2C7A7B" opacity="0.92" stroke="#fff" stroke-width="1"/><text x="559.0" y="493" text-anchor="middle" font-size="11" font-weight="700" fill="#fff">β 35 %</text><text x="559.0" y="505" text-anchor="middle" font-size="9" fill="#fff">Fonds Souverain</text><rect x="669.6" y="480" width="63.2" height="30" fill="#5E35B1" opacity="0.92" stroke="#fff" stroke-width="1"/><text x="701.2" y="493" text-anchor="middle" font-size="11" font-weight="700" fill="#fff">γ 10 %</text><text x="701.2" y="505" text-anchor="middle" font-size="9" fill="#fff">Réallocation</text><rect x="732.8" y="480" width="63.2" height="30" fill="#B45309" opacity="0.92" stroke="#fff" stroke-width="1"/><text x="764.4" y="493" text-anchor="middle" font-size="11" font-weight="700" fill="#fff">δ 10 %</text><text x="764.4" y="505" text-anchor="middle" font-size="9" fill="#fff">Décarbonation</text><line x1="480" y1="526" x2="480" y2="546" stroke="#5A6B7B" stroke-width="2" marker-end="url(#ar)"/><g><rect x="150" y="546" width="318" height="64" rx="9" fill="#DCE6F1" stroke="#2C5F8A" stroke-width="1.4" filter="url(#sh)"/><circle cx="176" cy="578" r="16" fill="#2C5F8A"/><text x="176" y="578" text-anchor="middle" dominant-baseline="central" font-size="13" font-weight="700" fill="#fff">4a</text><text x="204" y="570" font-size="14" font-weight="700" fill="#1F3A5F">Production</text><text x="204" y="589" font-size="11" fill="#41505e">Coopératives de travailleurs</text></g><g><rect x="492" y="546" width="318" height="64" rx="9" fill="#DCE6F1" stroke="#2C5F8A" stroke-width="1.4" filter="url(#sh)"/><circle cx="518" cy="578" r="16" fill="#2C5F8A"/><text x="518" y="578" text-anchor="middle" dominant-baseline="central" font-size="13" font-weight="700" fill="#fff">4b</text><text x="546" y="570" font-size="14" font-weight="700" fill="#1F3A5F">Consommation</text><text x="546" y="589" font-size="11" fill="#41505e">Coopératives de consommateurs</text></g><line x1="492" y1="578" x2="468" y2="578" stroke="#5A6B7B" stroke-width="1.6" stroke-dasharray="4 3" marker-end="url(#ar)"/><text x="480" y="572" text-anchor="middle" font-size="9" fill="#5A6B7B">demande ⇄ offre</text><line x1="480" y1="610" x2="480" y2="630" stroke="#5A6B7B" stroke-width="2" marker-end="url(#ar)"/><g><rect x="150" y="630" width="660" height="60" rx="9" fill="#E2F0E2" stroke="#2F7A4B" stroke-width="1.4" filter="url(#sh)"/><circle cx="176" cy="660" r="16" fill="#2F7A4B"/><text x="176" y="660" text-anchor="middle" dominant-baseline="central" font-size="13" font-weight="700" fill="#fff">5</text><text x="204" y="652" font-size="14" font-weight="700" fill="#1F3A5F">Santé / Temps</text><text x="204" y="671" font-size="11" fill="#41505e">Assurance solidaire + semaine de 28h — santé, inclusion, temps libre</text></g><line x1="480" y1="690" x2="480" y2="710" stroke="#5A6B7B" stroke-width="2" marker-end="url(#ar)"/><g><rect x="150" y="710" width="660" height="60" rx="9" fill="#EEF1F3" stroke="#5A6B7B" stroke-width="1.4" filter="url(#sh)"/><circle cx="176" cy="740" r="16" fill="#5A6B7B"/><text x="176" y="740" text-anchor="middle" dominant-baseline="central" font-size="13" font-weight="700" fill="#fff">6</text><text x="204" y="732" font-size="14" font-weight="700" fill="#1F3A5F">Coordination</text><text x="204" y="751" font-size="11" fill="#41505e">Coordination démocratique — cellules fédérées, marché comme signal</text></g><line x1="480" y1="770" x2="480" y2="790" stroke="#5A6B7B" stroke-width="2" marker-end="url(#ar)"/><g><rect x="150" y="790" width="660" height="60" rx="9" fill="#EEF1F3" stroke="#5A6B7B" stroke-width="1.4" filter="url(#sh)"/><circle cx="176" cy="820" r="16" fill="#5A6B7B"/><text x="176" y="820" text-anchor="middle" dominant-baseline="central" font-size="13" font-weight="700" fill="#fff">7</text><text x="204" y="812" font-size="14" font-weight="700" fill="#1F3A5F">Gouvernance</text><text x="204" y="831" font-size="11" fill="#41505e">Modèle suisse — subsidiarité, des communes à la Confédération</text></g><line x1="480" y1="850" x2="480" y2="870" stroke="#5A6B7B" stroke-width="2" marker-end="url(#ar)"/><g><rect x="150" y="870" width="660" height="60" rx="9" fill="#FBEAD8" stroke="#B45309" stroke-width="1.4" filter="url(#sh)"/><circle cx="176" cy="900" r="16" fill="#B45309"/><text x="176" y="900" text-anchor="middle" dominant-baseline="central" font-size="13" font-weight="700" fill="#fff">8</text><text x="204" y="892" font-size="14" font-weight="700" fill="#1F3A5F">Connaissance</text><text x="204" y="911" font-size="11" fill="#41505e">Formation officielle (SEFRI / OrTra) — reconversion diplômante</text></g><line x1="480" y1="930" x2="480" y2="950" stroke="#5A6B7B" stroke-width="2" marker-end="url(#ar)"/><rect x="150" y="950" width="660" height="122" rx="9" fill="#FFFDF8" stroke="#B45309" stroke-width="1.6" filter="url(#sh)"/><rect x="718" y="939" width="86" height="20" rx="10" fill="#B45309"/><text x="761" y="949" text-anchor="middle" font-size="10.5" font-weight="700" fill="#fff">NOUVEAU v4.3.2</text><text x="166" y="972" font-size="12.5" font-weight="700" fill="#1F3A5F">Dynamique à deux secteurs — automatiser l'automatisable, renforcer le reste</text><rect x="174" y="986" width="200" height="58" rx="8" fill="#DCE6F1" stroke="#2C5F8A" stroke-width="1.4"/><text x="274.0" y="1008" text-anchor="middle" font-size="11.5" font-weight="700" fill="#1F3A5F">Secteur automatisable</text><text x="274.0" y="1025" text-anchor="middle" font-size="10" fill="#41505e">industrie, logistique, finance…</text><text x="274.0" y="1038" text-anchor="middle" font-size="10" font-weight="700" fill="#2C5F8A">53 % → 24 %</text><rect x="586" y="986" width="200" height="58" rx="8" fill="#E2F0E2" stroke="#2F7A4B" stroke-width="1.4"/><text x="686.0" y="1008" text-anchor="middle" font-size="11.5" font-weight="700" fill="#1F3A5F">Secteur non automatisable</text><text x="686.0" y="1025" text-anchor="middle" font-size="10" fill="#41505e">santé, éducation, écologie…</text><text x="686.0" y="1038" text-anchor="middle" font-size="10" font-weight="700" fill="#2F7A4B">47 % → 76 %</text><line x1="380" y1="1015" x2="580" y2="1015" stroke="#B45309" stroke-width="2.4" marker-end="url(#aro)"/><text x="480" y="1005" text-anchor="middle" font-size="10.5" font-weight="700" fill="#B45309">main-d'œuvre libérée</text><text x="480" y="1031" text-anchor="middle" font-size="11" font-weight="800" fill="#B45309">1,49 M (100 %)</text><line x1="480" y1="1072" x2="480" y2="1092" stroke="#5A6B7B" stroke-width="2" marker-end="url(#ar)"/><g><rect x="150" y="1092" width="660" height="60" rx="9" fill="#DCE6F1" stroke="#2C5F8A" stroke-width="1.4" filter="url(#sh)"/><circle cx="176" cy="1122" r="16" fill="#2C5F8A"/><text x="176" y="1122" text-anchor="middle" dominant-baseline="central" font-size="13" font-weight="700" fill="#fff">9</text><text x="204" y="1114" font-size="14" font-weight="700" fill="#1F3A5F">Propagation</text><text x="204" y="1133" font-size="11" fill="#41505e">Investissement à 0 % — crée des cellules ailleurs (si excédent &gt; 2 % PIB)</text></g><line x1="480" y1="1152" x2="480" y2="1172" stroke="#5A6B7B" stroke-width="2" marker-end="url(#ar)"/><g><rect x="150" y="1172" width="660" height="60" rx="9" fill="#E2F0E2" stroke="#2F7A4B" stroke-width="1.4" filter="url(#sh)"/><circle cx="176" cy="1202" r="16" fill="#2F7A4B"/><text x="176" y="1202" text-anchor="middle" dominant-baseline="central" font-size="13" font-weight="700" fill="#fff">10</text><text x="204" y="1194" font-size="14" font-weight="700" fill="#1F3A5F">Temps</text><text x="204" y="1213" font-size="11" fill="#41505e">Indexation du travail — le temps baisse avec l&#x27;automatisation</text></g><line x1="480" y1="1232" x2="480" y2="1252" stroke="#5A6B7B" stroke-width="2" marker-end="url(#ar)"/><g><rect x="150" y="1252" width="660" height="60" rx="9" fill="#FBEAD8" stroke="#B45309" stroke-width="2.2" filter="url(#sh)"/><circle cx="176" cy="1282" r="16" fill="#B45309"/><text x="176" y="1282" text-anchor="middle" dominant-baseline="central" font-size="13" font-weight="700" fill="#fff">11</text><text x="204" y="1274" font-size="14" font-weight="700" fill="#1F3A5F">Communs nationaux</text><text x="204" y="1293" font-size="11" fill="#41505e">Rail / Énergie / Numérique en accès ouvert — retire les rentes (Ostrom)</text><g><rect x="718" y="1241" width="86" height="20" rx="10" fill="#B45309"/><text x="761" y="1251" text-anchor="middle" font-size="10.5" font-weight="700" fill="#fff">NOUVEAU v4.3.2</text></g></g><line x1="480" y1="1312" x2="480" y2="1332" stroke="#5A6B7B" stroke-width="2" marker-end="url(#ar)"/><g><rect x="150" y="1332" width="660" height="60" rx="9" fill="#FBEAD8" stroke="#B45309" stroke-width="2.2" filter="url(#sh)"/><circle cx="176" cy="1362" r="16" fill="#B45309"/><text x="176" y="1362" text-anchor="middle" dominant-baseline="central" font-size="13" font-weight="700" fill="#fff">12</text><text x="204" y="1354" font-size="14" font-weight="700" fill="#1F3A5F">Boucle écologique</text><text x="204" y="1373" font-size="11" fill="#41505e">Budget carbone + Fonds Décarbonation (δ) — zéro net 2050 (LCI)</text><g><rect x="718" y="1321" width="86" height="20" rx="10" fill="#B45309"/><text x="761" y="1331" text-anchor="middle" font-size="10.5" font-weight="700" fill="#fff">NOUVEAU v4.3.2</text></g></g><path d="M 480.0 117 C 900 117, 900 1422, 480.0 1422" fill="none" stroke="#2F7A4B" stroke-width="1.8" stroke-dasharray="6 4" marker-end="url(#arg)" opacity="0.8"/><text x="874" y="748.0" text-anchor="middle" font-size="10.5" fill="#2F7A4B" font-weight="700" transform="rotate(90 874 748.0)">Rétroaction — propagation du capital citoyen</text><rect x="0" y="1446" width="960" height="232" fill="#1F3A5F"/><text x="480.0" y="1480" text-anchor="middle" font-size="16" font-weight="800" fill="#fff">TABLEAU DE BORD — ANNÉE 20 — SCÉNARIO DE RÉFÉRENCE (validé 7/7)</text><rect x="46" y="1498" width="208" height="66" rx="7" fill="#26415F" stroke="#3A5A7D" stroke-width="1"/><text x="150" y="1528" text-anchor="middle" font-size="20" font-weight="800" fill="#7ED6A6">+175 %</text><text x="150" y="1548" text-anchor="middle" font-size="10.5" fill="#AFC4DC">Indice PIB</text><rect x="266" y="1498" width="208" height="66" rx="7" fill="#26415F" stroke="#3A5A7D" stroke-width="1"/><text x="370" y="1528" text-anchor="middle" font-size="20" font-weight="800" fill="#7FC8C9">72/100</text><text x="370" y="1548" text-anchor="middle" font-size="10.5" fill="#AFC4DC">Bonheur Nat. Brut</text><rect x="486" y="1498" width="208" height="66" rx="7" fill="#26415F" stroke="#3A5A7D" stroke-width="1"/><text x="590" y="1528" text-anchor="middle" font-size="20" font-weight="800" fill="#C9B3E8">0.185</text><text x="590" y="1548" text-anchor="middle" font-size="10.5" fill="#AFC4DC">Coeff. de Gini</text><rect x="706" y="1498" width="208" height="66" rx="7" fill="#26415F" stroke="#3A5A7D" stroke-width="1"/><text x="810" y="1528" text-anchor="middle" font-size="20" font-weight="800" fill="#7FC8C9">28h</text><text x="810" y="1548" text-anchor="middle" font-size="10.5" fill="#AFC4DC">Semaine travail</text><rect x="46" y="1578" width="208" height="66" rx="7" fill="#26415F" stroke="#3A5A7D" stroke-width="1"/><text x="150" y="1608" text-anchor="middle" font-size="20" font-weight="800" fill="#7ED6A6">19.2 %</text><text x="150" y="1628" text-anchor="middle" font-size="10.5" fill="#AFC4DC">Excédent / PIB</text><rect x="266" y="1578" width="208" height="66" rx="7" fill="#26415F" stroke="#3A5A7D" stroke-width="1"/><text x="370" y="1608" text-anchor="middle" font-size="20" font-weight="800" fill="#F0B27A">−68 %</text><text x="370" y="1628" text-anchor="middle" font-size="10.5" fill="#AFC4DC">Émissions nettes</text><rect x="486" y="1578" width="208" height="66" rx="7" fill="#26415F" stroke="#3A5A7D" stroke-width="1"/><text x="590" y="1608" text-anchor="middle" font-size="20" font-weight="800" fill="#F0B27A">Zéro net</text><text x="590" y="1628" text-anchor="middle" font-size="10.5" fill="#AFC4DC">2050 (LCI)</text><rect x="706" y="1578" width="208" height="66" rx="7" fill="#26415F" stroke="#3A5A7D" stroke-width="1"/><text x="810" y="1608" text-anchor="middle" font-size="20" font-weight="800" fill="#AFC4DC">5,0 M</text><text x="810" y="1628" text-anchor="middle" font-size="10.5" fill="#AFC4DC">Emplois (1,49 M reconvertis)</text></svg>